#!OML:ASF H:\ManfredETheater\Project 1\Capture day 1\Session 1\subject.ASF
:FULLY-SPECIFIED
:DEGREES
81
root 2.98301 16.487 -9.19571 -163.047 -10.2473 -180.864
lowerback 17.05 0.581732 -1.47469
upperback 0.342677 0.401311 0.595643
thorax -9.23481 0.215098 1.39332
lowerneck -22.8515 -5.30871 -3.64426
upperneck 1.40636 -7.06495 4.66317
head 4.25313 -3.49172 1.31773
rclavicle 3.1408e-014 2.5842e-015
rhumerus -39.0517 7.27088 -87.5548
rradius 100.023
rwrist -12.5112
rhand -22.6979 11.921
rfingers 7.12502
rthumb 3.73481 -18.026
lclavicle 3.1408e-014 2.5842e-015
lhumerus -62.0031 -4.13254 95.1195
lradius 97.9583
lwrist 14.9592
lhand -22.3406 -12.4382
lfingers 7.12502
lthumb 4.07985 17.5024
rfemur -5.14061 -7.42861 23.9635
rtibia 83.5303
rfoot 20.9248 -7.9677
rtoes -4.77371
lfemur -58.2572 -0.91259 -27.5031
ltibia 58.7409
lfoot -16.6702 -9.10961
ltoes 5.99213
82
root 2.98807 16.4491 -9.81968 -163.022 -10.4424 -182.245
lowerback 17.4532 0.44192 -2.74417
upperback 0.337223 -0.0866283 0.232026
thorax -9.45143 0.0304301 1.84472
lowerneck -22.6009 -5.29156 -3.72302
upperneck 1.1994 -7.05692 4.98926
head 4.16922 -3.47702 1.44065
rclavicle -1.27222e-014 -1.09332e-014
rhumerus -40.1337 5.68513 -87.958
rradius 95.481
rwrist -12.9729
rhand -23.2514 11.8158
rfingers 7.12502
rthumb 3.20032 -18.14
lclavicle -1.27222e-014 -1.09332e-014
lhumerus -58.7321 -4.99701 96.0261
lradius 96.5444
lwrist 14.8364
lhand -22.5804 -12.4692
lfingers 7.12502
lthumb 3.84829 17.4758
rfemur -8.21082 -8.99012 21.7109
rtibia 88.2496
rfoot 18.6671 -6.0531
rtoes -6.0858
lfemur -56.3281 -1.58331 -28.5441
ltibia 60.222
lfoot -18.5854 -8.39136
ltoes 9.79542
83
root 2.98915 16.4132 -10.4374 -162.86 -10.6336 -183.471
lowerback 17.7058 0.298445 -3.79581
upperback 0.272456 -0.538808 -0.0943855
thorax -9.63815 -0.142935 2.20564
lowerneck -22.3743 -5.30744 -3.87027
upperneck 1.05881 -7.07303 5.34638
head 4.11437 -3.4703 1.57968
rclavicle -9.54166e-015 -1.5704e-014
rhumerus -41.256 4.04047 -88.1691
rradius 90.9676
rwrist -13.4903
rhand -24.0557 11.7805
rfingers 7.12502
rthumb 2.42355 -18.1855
lclavicle -9.54166e-015 -1.5704e-014
lhumerus -55.3712 -6.05366 96.862
lradius 95.1724
lwrist 14.8847
lhand -22.7653 -12.5819
lfingers 7.12502
lthumb 3.66976 17.3663
rfemur -11.6527 -10.5419 19.6483
rtibia 92.6343
rfoot 16.438 -4.2478
rtoes -7.44666
lfemur -54.3775 -2.27465 -29.3608
ltibia 61.443
lfoot -20.7909 -7.57365
ltoes 12.2461
84
root 2.98655 16.3819 -11.0511 -162.585 -10.7935 -184.484
lowerback 17.7911 0.159697 -4.59242
upperback 0.157886 -0.92448 -0.372719
thorax -9.78309 -0.29212 2.45587
lowerneck -22.2066 -5.35908 -4.06732
upperneck 1.0147 -7.11988 5.71086
head 4.10184 -3.47451 1.7229
rclavicle 5.56597e-015 -1.39149e-015
rhumerus -42.4671 2.39835 -88.1772
rradius 86.589
rwrist -14.1135
rhand -25.0935 11.8128
rfingers 7.12502
rthumb 1.4213 -18.1622
lclavicle 5.56597e-015 -1.39149e-015
lhumerus -51.9839 -7.2649 97.6043
lradius 93.989
lwrist 15.1014
lhand -22.8702 -12.7238
lfingers 7.12502
lthumb 3.56842 17.2261
rfemur -15.4577 -12.0349 17.9022
rtibia 96.6036
rfoot 14.2858 -2.6125
rtoes -8.77928
lfemur -52.3799 -2.95124 -29.8973
ltibia 62.3231
lfoot -23.2011 -6.80056
ltoes 14.0965
85
root 2.98076 16.3564 -11.6631 -162.236 -10.9019 -185.282
lowerback 17.7211 0.0344742 -5.15291
upperback 0.00463371 -1.22924 -0.601896
thorax -9.88683 -0.410267 2.60191
lowerneck -22.1076 -5.44147 -4.28441
upperneck 1.07895 -7.19565 6.04363
head 4.13413 -3.4899 1.8535
rclavicle 7.90169e-015 9.93923e-016
rhumerus -43.8055 0.842658 -87.9887
rradius 82.4528
rwrist -14.8988
rhand -26.2767 11.8698
rfingers 7.12502
rthumb 0.27853 -18.1098
lclavicle 7.90169e-015 9.93923e-016
lhumerus -48.6551 -8.55857 98.2468
lradius 93.1452
lwrist 15.3501
lhand -22.8592 -12.8776
lfingers 7.12502
lthumb 3.57911 17.0721
rfemur -19.5743 -13.4255 16.5364
rtibia 100.081
rfoot 12.22 -1.21455
rtoes -10.0367
lfemur -50.274 -3.49911 -30.2271
ltibia 62.8199
lfoot -25.5819 -6.09223
ltoes 13.5333
86
root 2.97345 16.3385 -12.2751 -161.88 -10.9434 -185.879
lowerback 17.5691 -0.0691183 -5.52674
upperback -0.174984 -1.45491 -0.7837
thorax -9.97975 -0.496466 2.67109
lowerneck -22.0867 -5.53761 -4.48691
upperneck 1.25928 -7.28515 6.31833
head 4.21213 -3.50969 1.95924
rclavicle -1.24737e-014 2.14687e-014
rhumerus -45.2911 -0.534934 -87.6439
rradius 78.6619
rwrist -15.8258
rhand -27.4676 11.9022
rfingers 7.12502
rthumb -0.871694 -18.0758
lclavicle -1.24737e-014 2.14687e-014
lhumerus -45.4735 -9.83129 98.7835
lradius 92.773
lwrist 15.4232
lhand -22.7651 -13.0126
lfingers 7.12502
lthumb 3.66993 16.9356
rfemur -23.8986 -14.656 15.5895
rtibia 102.994
rfoot 10.2431 -0.111166
rtoes -11.2509
lfemur -48.0017 -3.89433 -30.3744
ltibia 62.9353
lfoot -27.8663 -5.45845
ltoes 12.7329
